<svg width="12" height="16" viewBox="0 0 12 16" fill="none" xmlns="http://www.w3.org/2000/svg">
<path d="M6.00012 0C4.40889 0 2.88254 0.609138 1.75731 1.69353C0.632079 2.77809 0 4.24888 0 5.78236C0 11.5617 6 16 6 16C6 16 12 11.5616 12 5.78236C12 4.24888 11.3679 2.77815 10.2427 1.69353C9.11746 0.609138 7.59111 0 5.99988 0H6.00012ZM6.00012 8.63994C5.20753 8.63994 4.44732 8.33659 3.88704 7.7964C3.32653 7.25645 3.01174 6.52384 3.01174 5.76002C3.01174 4.99619 3.32651 4.26357 3.88704 3.7234C4.44733 3.18345 5.20753 2.87986 6.00012 2.87986C6.79271 2.87986 7.55292 3.18343 8.11319 3.7234C8.67371 4.26358 8.9885 4.99614 8.9885 5.76002C8.9885 6.52384 8.67373 7.25646 8.11319 7.7964C7.55291 8.33657 6.79271 8.63994 6.00012 8.63994Z" fill="black"/>
</svg>
