<svg width="14" height="14" viewBox="0 0 14 14" fill="none" xmlns="http://www.w3.org/2000/svg">
<path fill-rule="evenodd" clip-rule="evenodd" d="M8.10345 5.05172C8.10345 7.01329 6.51329 8.60345 4.55172 8.60345C2.59016 8.60345 1 7.01329 1 5.05172C1 3.09016 2.59016 1.5 4.55172 1.5C6.51329 1.5 8.10345 3.09016 8.10345 5.05172ZM7.39709 8.60469C6.61776 9.22962 5.6284 9.60345 4.55172 9.60345C2.03788 9.60345 0 7.56557 0 5.05172C0 2.53788 2.03788 0.5 4.55172 0.5C7.06557 0.5 9.10345 2.53788 9.10345 5.05172C9.10345 6.12865 8.72945 7.11822 8.10425 7.89764L11.3533 11.1467L10.6462 11.8538L7.39709 8.60469Z" fill="#52575C"/>
</svg>
