<svg width="14" height="14" viewBox="0 0 14 14" fill="none" xmlns="http://www.w3.org/2000/svg">
<path fill-rule="evenodd" clip-rule="evenodd" d="M9.10345 5.05172C9.10345 7.01329 7.51329 8.60345 5.55172 8.60345C3.59016 8.60345 2 7.01329 2 5.05172C2 3.09016 3.59016 1.5 5.55172 1.5C7.51329 1.5 9.10345 3.09016 9.10345 5.05172ZM8.39709 8.60469C7.61776 9.22962 6.6284 9.60345 5.55172 9.60345C3.03788 9.60345 1 7.56557 1 5.05172C1 2.53788 3.03788 0.5 5.55172 0.5C8.06557 0.5 10.1034 2.53788 10.1034 5.05172C10.1034 6.12865 9.72945 7.11822 9.10425 7.89764L12.3533 11.1467L11.6462 11.8538L8.39709 8.60469Z" fill="black"/>
<path d="M8.39709 8.60469L8.75065 8.25114L8.43384 7.93433L8.0843 8.21461L8.39709 8.60469ZM9.10425 7.89764L8.71423 7.58478L8.43384 7.93433L8.7507 8.25119L9.10425 7.89764ZM12.3533 11.1467L12.7068 11.5002L13.0604 11.1467L12.7068 10.7931L12.3533 11.1467ZM11.6462 11.8538L11.2926 12.2073L11.6462 12.5609L11.9997 12.2073L11.6462 11.8538ZM5.55172 9.10345C7.78943 9.10345 9.60345 7.28943 9.60345 5.05172H8.60345C8.60345 6.73714 7.23714 8.10345 5.55172 8.10345V9.10345ZM1.5 5.05172C1.5 7.28943 3.31402 9.10345 5.55172 9.10345V8.10345C3.8663 8.10345 2.5 6.73714 2.5 5.05172H1.5ZM5.55172 1C3.31402 1 1.5 2.81402 1.5 5.05172H2.5C2.5 3.3663 3.8663 2 5.55172 2V1ZM9.60345 5.05172C9.60345 2.81402 7.78943 1 5.55172 1V2C7.23714 2 8.60345 3.3663 8.60345 5.05172H9.60345ZM5.55172 10.1034C6.74618 10.1034 7.84504 9.68827 8.70989 8.99477L8.0843 8.21461C7.39048 8.77098 6.51061 9.10345 5.55172 9.10345V10.1034ZM0.5 5.05172C0.5 7.84171 2.76173 10.1034 5.55172 10.1034V9.10345C3.31402 9.10345 1.5 7.28943 1.5 5.05172H0.5ZM5.55172 0C2.76173 0 0.5 2.26173 0.5 5.05172H1.5C1.5 2.81402 3.31402 1 5.55172 1V0ZM10.6034 5.05172C10.6034 2.26173 8.34171 0 5.55172 0V1C7.78943 1 9.60345 2.81402 9.60345 5.05172H10.6034ZM9.49428 8.21049C10.1881 7.34555 10.6034 6.24646 10.6034 5.05172H9.60345C9.60345 6.01083 9.27082 6.89088 8.71423 7.58478L9.49428 8.21049ZM8.7507 8.25119L11.9997 11.5002L12.7068 10.7931L9.45781 7.54408L8.7507 8.25119ZM11.9997 10.7931L11.2926 11.5002L11.9997 12.2073L12.7068 11.5002L11.9997 10.7931ZM11.9997 11.5002L8.75065 8.25114L8.04354 8.95824L11.2926 12.2073L11.9997 11.5002Z" fill="black"/>
</svg>
