<svg version="1.1" id="Layer_1" xmlns="http://www.w3.org/2000/svg" x="0" y="0" viewBox="0 0 134 16" xml:space="preserve"><style>.st0{fill:#ec0404}</style><path class="st0" d="M2.2 13.7V3h7.4v1.8H4.2v2.5H9v1.8H4.2v2.7h5.5v1.8H2.2zm10.9 0V3h2v8.8h4.7v1.8h-6.7zm9.9 0V3h7.4v1.8H25v2.5h4.8v1.8H25v2.7h5.5v1.8H23zm15.5.1c-3.1 0-5.1-2-5.1-5.5 0-3.4 2.1-5.5 5.1-5.5 1.1 0 2.1.2 3 .6L41 5.3c-.7-.3-1.5-.5-2.4-.5-1.9 0-3.1 1.4-3.1 3.6 0 2.3 1.2 3.6 3.2 3.6.8 0 1.6-.2 2.4-.5l.4 1.8c-.9.3-2 .5-3 .5zm8.8-.1V4.9H44V3h8.8v1.8h-3.4v8.8h-2.1zm8.6 0V3h2v10.7h-2zm10.2.2c-2.8 0-4.8-2.1-4.8-5.5s1.9-5.5 4.8-5.5c2.8 0 4.8 2.1 4.8 5.5 0 3.3-2 5.5-4.8 5.5zm0-9.3c-1.6 0-2.7 1.4-2.7 3.7 0 2.3 1.1 3.8 2.7 3.8s2.7-1.4 2.7-3.7c0-2.3-1.1-3.8-2.7-3.8zm10.1 9.1h-1.9V3h2.3l4.3 7.4V3h1.9v10.7h-2.2l-4.4-7.5v7.5z"/><path d="M89.2 14l-.3-1.5L93 8.1c.8-.9 1.2-1.5 1.2-2.2 0-.8-.5-1.4-1.4-1.4-.9 0-1.8.5-2.8 1.4l-1-1.5c1-.9 2.3-1.7 4-1.7 2.1 0 3.4 1.3 3.4 3 0 1.4-.6 2.3-2 3.7l-2.5 2.7h4.7V14h-7.4zm22.2 0l-.3-1.5 4.1-4.3c.8-.9 1.2-1.5 1.2-2.2 0-.8-.5-1.4-1.4-1.4-.9 0-1.8.5-2.8 1.4l-.9-1.7c1-.9 2.3-1.7 4-1.7 2.1 0 3.4 1.3 3.4 3 0 1.4-.6 2.3-2 3.7l-2.5 2.7h4.7v2h-7.5zm14.7-9.2c2.2 0 3.9 1.8 3.9 3.9s-1.8 3.9-3.9 3.9-3.9-1.8-3.9-3.9 1.7-3.9 3.9-3.9m0-1.8c-3.2 0-5.7 2.6-5.7 5.7s2.6 5.7 5.7 5.7c3.2 0 5.7-2.6 5.7-5.7S129.3 3 126.1 3zm-22.2 1.8c2.2 0 3.9 1.8 3.9 3.9s-1.8 3.9-3.9 3.9c-2.2 0-3.9-1.8-3.9-3.9s1.7-3.9 3.9-3.9m0-1.8c-3.2 0-5.7 2.6-5.7 5.7s2.6 5.7 5.7 5.7c3.2 0 5.7-2.6 5.7-5.7S107 3 103.9 3z" fill="#0294e8"/><path class="st0" d="M104 11.2l-3.1-3.4 1-1 2 2.3 5.7-7.5 1.1.8z"/></svg>